<svg id="Layer_1" data-name="Layer 1" xmlns="http://www.w3.org/2000/svg" viewBox="0 0 298.74 172.27"><defs><style>.cls-1{fill:#b91c1c;}</style></defs><path class="cls-1" d="M296.77,346.23v-2" transform="translate(-97.13 -306.21)"/><path class="cls-1" d="M268.27,310.75c2.3,1.05,5.09,1,7,3,0,1.45-.19,1.55-1.94.94l-.54-.49c-1.22-1.43-2.92-1.28-4.54-1.39C269,312.13,268,311.43,268.27,310.75Z" transform="translate(-97.13 -306.21)"/><path class="cls-1" d="M268.27,310.75c.56.69.94,1.39,0,2.06l-1-.06c-1-1-3.19-.67-3.37-2.75.42-1.68,1.26-.81,2-.34A4.18,4.18,0,0,0,268.27,310.75Z" transform="translate(-97.13 -306.21)"/><path class="cls-1" d="M211.33,322.78l-.55-.09a1.15,1.15,0,0,1,.24-1.36,19,19,0,0,1,6.18-4.1l.09.54C216,320.21,213,320.74,211.33,322.78Z" transform="translate(-97.13 -306.21)"/><path class="cls-1" d="M271.21,383.74l.64.84a41.73,41.73,0,0,1,4,5.27c-.52.9-1.27.6-1.88.6-15.08,0-33.15,0-54.23.05-1.82,0-2.51-.49-2.51-2.38q.06-27.62,0-55.23c0-1.9.64-2.68,2.61-2.67,17.75,0,35.49,0,53.24,0,.73,0,1.63-.18,2,.59s-.27,1.37-.71,2c-1.89,2.63-3.85,5.22-5.82,7.79-4.18,5.76-8.48,11.45-12.82,17.1-1.58,2.06-1.64,3.59,0,5.37,1.39,1.84,2.85,3.63,4.12,5.55,3.16,4.09,6.23,8.24,9.3,12.39A8.94,8.94,0,0,1,271.21,383.74Z" transform="translate(-97.13 -306.21)"/><path class="cls-1" d="M269.22,381.31l.09-.68" transform="translate(-97.13 -306.21)"/><path class="cls-1" d="M271.21,383.74" transform="translate(-97.13 -306.21)"/><path class="cls-1" d="M233.28,308.74c-.94.51.77,1.59-.44,2a17.24,17.24,0,0,0-3.08.89c-1.07.08-2.14.09-3.2.24-.55.08-1.14,1.11-1.57,0-.3-.77.48-1.14,1-1.49s.84-.46,1.27-.69l4-1C231.92,308.67,232.61,307.16,233.28,308.74Z" transform="translate(-97.13 -306.21)"/><path class="cls-1" d="M261.27,307.75c.29.27.8.43.5,1l-3.93-.1a2.19,2.19,0,0,0-2.06-.9c-.28-.35-.82-.19-1.08-.56a.48.48,0,0,1,.15-.55" transform="translate(-97.13 -306.21)"/><path class="cls-1" d="M286.71,397.6l-.94.13c-.32-1.07.49-1.7,1-2.39a64.67,64.67,0,0,0,11.08-21.79,15.59,15.59,0,0,0,.79-4.38,33.37,33.37,0,0,0,.82-3.56c0-.34-.45,0-.12-.06.13,0,.21.07.14.19-.53.78.24,2.27-1.34,2.48a1.48,1.48,0,0,1,.12-1.48,3.66,3.66,0,0,1,1.86-3.37,20.52,20.52,0,0,1-.38,8.31,66.3,66.3,0,0,1-8.68,20.22C289.79,393.91,288.17,395.7,286.71,397.6Z" transform="translate(-97.13 -306.21)"/><path class="cls-1" d="M208.75,396.24c1,2.56,3.95,3,5.53,5a87.84,87.84,0,0,0,14.82,8.65,9,9,0,0,0,2.16.41c.52,1.19-.39,1.37-1.15,1.52a6.85,6.85,0,0,1-2.85,0,12.93,12.93,0,0,1-3.27-1.28c-1.56-.82-3.14-1.63-4.69-2.48a2.87,2.87,0,0,1-1.44-.92,18.91,18.91,0,0,0-4.87-3.85,3.67,3.67,0,0,1-.56-.38,11.75,11.75,0,0,0-2.81-2.24,3.39,3.39,0,0,1-.8-.61c-1-1.28-2.23-2.29-3.27-3.51a2.89,2.89,0,0,1-.5-.91c-2.8-4-6-7.68-7.93-12.17-.27-.5-.45-1-.73-1.52a5.74,5.74,0,0,0-.92-2c-.31-.48-.58-1-.91-1.45a2.66,2.66,0,0,1-.26-.68,12.23,12.23,0,0,1-.18-2.26c0-.93,0-1.86-.05-2.78-.31-2.81-.86-5.59-1.22-8.39-.07-.56-.12-1.27.56-1.49s.5.69.88.92h0c.59.93-.15,2.08.48,3a2.38,2.38,0,0,1,0,.46c.51.78-.1,1.76.43,2.54l1.56,5.43c.55.78-.16,1.8.51,2.56v0c.65.72.6,1.71,1,2.53-.17,2.3,1.31,3.86,2.48,5.56.36.63.45,1.4,1,1.93.68,2.2,2.93,3.11,4.06,4.93.85.65.68,1.87,1.44,2.57A1.64,1.64,0,0,0,208.75,396.24Z" transform="translate(-97.13 -306.21)"/><path class="cls-1" d="M207.27,395.22" transform="translate(-97.13 -306.21)"/><path class="cls-1" d="M198.3,380.23a4.43,4.43,0,0,1-1-2.53C198.38,378.25,198.3,379.26,198.3,380.23Z" transform="translate(-97.13 -306.21)"/><path class="cls-1" d="M194.77,366.73c-.89-.89-.36-2-.48-3,.69.54.38,1.33.51,2Z" transform="translate(-97.13 -306.21)"/><path class="cls-1" d="M197.31,377.72c-.89-.71-.41-1.69-.51-2.56C197.43,375.92,197.22,376.85,197.31,377.72Z" transform="translate(-97.13 -306.21)"/><path class="cls-1" d="M195.24,369.73c-.77-.74-.38-1.68-.43-2.54C195.5,367.94,195.2,368.86,195.24,369.73Z" transform="translate(-97.13 -306.21)"/><path class="cls-1" d="M201.77,387.72a1.71,1.71,0,0,1-1-1.93A2.56,2.56,0,0,1,201.77,387.72Z" transform="translate(-97.13 -306.21)"/><path class="cls-1" d="M226.68,411.26c1.49-.52,3.41.94,4.58-1l2,.46h0a1.85,1.85,0,0,0,2,.48c1.59.95,3.33.45,5,.51,1,.63,2.12,0,3.11.44a3.23,3.23,0,0,0,3.22.39,8.47,8.47,0,0,1,4.86.09,4.82,4.82,0,0,0,3.74-.49,10.45,10.45,0,0,1,7.07-1c-.06,1.3-1.13,1.29-1.7,1.8-9.15,2-18.27,2.53-27.36-.32a4.17,4.17,0,0,0-2.8-.49C229.16,412.13,227.6,412.88,226.68,411.26Z" transform="translate(-97.13 -306.21)"/><path class="cls-1" d="M277.4,404.77c-2.65,1.28-4.74,3.48-7.55,4.48-2.17.63-4.12,2-6.53,2.27-.12-1.34,1.24-1.22,1.4-2l1.38-.83c1.59-1,3.83-.38,5.13-2.07.6-1.63,2.27-1.78,3.49-2.53a34.57,34.57,0,0,0,8.6-7.76c2.92-2,4.08-5.59,6.89-7.69.71.76.17,1.37-.27,1.95a84.89,84.89,0,0,1-11.51,12.53C277.93,403.52,277,403.74,277.4,404.77Z" transform="translate(-97.13 -306.21)"/><path class="cls-1" d="M264.72,409.49c0,.76-.78,1-1.11,1.7,2.28-.29,4-2,6.24-1.94-2.54,1.92-5.75,2.21-8.56,3.47-.21.2-.39.19-.54-.05.23-.52,1.12-.44,1.09-1.42-1.37,0-2.91-.5-4.06.28-3.95,2.67-8.47.35-12.55,1.62-.69.22-1.43-.32-2-.87.15-.24.33-.29.55-.1,2,.78,3.94-.65,6-.07a8.61,8.61,0,0,0,6.82-.9,7.17,7.17,0,0,1,4.13-.53A7,7,0,0,0,264.72,409.49Z" transform="translate(-97.13 -306.21)"/><path class="cls-1" d="M266.1,408.66c.25-.3.49-.6.74-.89" transform="translate(-97.13 -306.21)"/><path class="cls-1" d="M219.23,313.7c.82.55,1.67-1.56,2.48,0-.73,2.16-3.61,1.56-4.51,3.51-1.76,2.27-5,2.75-6.42,5.46l-1,.55c-.24.34-.57.7-1,.48s-.32-.68-.12-1.07l.55-.92c.19-.16.38-.32.56-.49,1.63-1.19,2.87-2.82,4.42-4.09S217.15,314.25,219.23,313.7Z" transform="translate(-97.13 -306.21)"/><path class="cls-1" d="M194.29,363.72c-1-1-1.08-.41-.92.57.48,2.81.94,5.62,1.4,8.43-.79.86.54,2.35-.9,3-.75-1.66,0-3.44-.39-5.1-1.45-5.94-.89-12-.94-18,0-.48,0-.93.66-1,2.12,1.5,1.33,3.88,1.29,5.73C194.45,359.47,194.27,361.6,194.29,363.72Z" transform="translate(-97.13 -306.21)"/><path class="cls-1" d="M194.26,345.72c.85-1,.56-2.59,1.85-3.57a16.11,16.11,0,0,1-.36,6.05c-.53.73-1.13.61-1.63,0C193.39,347.39,193.84,346.54,194.26,345.72Z" transform="translate(-97.13 -306.21)"/><path class="cls-1" d="M202.73,333.12c-1.82,1.25-2.14,3.51-3.44,5.11-.7.25-.45,2-1.63,1.26-.83-.5,0-1.3.21-2,.13-.47.23-.93.35-1.4a24.55,24.55,0,0,1,4-6.52c1.35-1.78,2.76-3.52,4.15-5.28,2.21,1.21-.33,2.25-.12,3.38" transform="translate(-97.13 -306.21)"/><path class="cls-1" d="M284.75,321.67c.63.18,1.62.38,1.19,1.15-.52,1-1.43.19-2.16-.09C283.73,322,284.13,321.75,284.75,321.67Z" transform="translate(-97.13 -306.21)"/><path class="cls-1" d="M277.4,404.77c-.4-.08-1,0-1.16-.26-.27-.55.33-.83.7-1.1,5.12-3.79,8.94-8.81,12.95-13.64a3.2,3.2,0,0,0,.32-1.16c.15-.31.31-.61.46-.91a7.92,7.92,0,0,0,1.55-2l0,0a30,30,0,0,0,2.54-5.56c.18-.64.37-1.27.55-1.91a16.78,16.78,0,0,0,2.05-6l.43-.55c.66-.92-.12-2.08.51-3h0c.57-.3.72.21,1,.51a46.89,46.89,0,0,1-5.57,16.53,71.39,71.39,0,0,1-7.91,12l-.5.49c-1.53.92-2.47,2.54-4,3.47l-.53.53c-.9.57-1.59,1.42-2.48,2Z" transform="translate(-97.13 -306.21)"/><path class="cls-1" d="M294.73,380.14a8.69,8.69,0,0,1-2.54,5.56c0-.33,0-.65.05-1C293.59,383.47,293.26,381.32,294.73,380.14Z" transform="translate(-97.13 -306.21)"/><path class="cls-1" d="M292.22,385.66a2,2,0,0,1-1.55,2A3.39,3.39,0,0,1,292.22,385.66Z" transform="translate(-97.13 -306.21)"/><path class="cls-1" d="M208.71,322.65c0,.82.44.92,1.09.59-.09.67-.44,1.18-1.11.83S208.27,323.12,208.71,322.65Z" transform="translate(-97.13 -306.21)"/><path class="cls-1" d="M252.75,306.79l2,0,1.07.92a8.58,8.58,0,0,0-4,1,1.6,1.6,0,0,0-.44,0c-.85-.91-2.22-.09-3.1-.93C249.5,306.34,251.4,307.84,252.75,306.79Z" transform="translate(-97.13 -306.21)"/><path class="cls-1" d="M252.75,306.79c.24.56.25,1-.53,1-1.33,0-2.66,0-4,0h-5.41c-.69.23-1.39.46-2.08.71-1.72.63-3.35.88-4.54-1.15,3.56-1.57,7.37-1,11.09-1.12a3.4,3.4,0,0,0,.46.06c1.29.59,2.73-.15,4,.44Z" transform="translate(-97.13 -306.21)"/><path class="cls-1" d="M281.27,401.69c1.19-1.33,2.11-3,4-3.47C284.19,399.66,283.15,401.16,281.27,401.69Z" transform="translate(-97.13 -306.21)"/><path class="cls-1" d="M278.26,404.25a3.49,3.49,0,0,1,2.48-2A3.44,3.44,0,0,1,278.26,404.25Z" transform="translate(-97.13 -306.21)"/><path class="cls-1" d="M214.24,317.15c-1.22,1.64-2.4,3.31-4.42,4.09C211.17,319.74,212.24,318,214.24,317.15Z" transform="translate(-97.13 -306.21)"/><path class="cls-1" d="M372.78,474.2l-.06-.94c-1.8-4.8-3.84-9.52-5.24-14.48-3.15-7-5.76-14.28-8.32-21.54-.35-1-1.11-2.12-.28-3.29,6.56-.52,13.12-.12,19.68-.22,1.5,0,1.67,1.25,2,2.19,2.08,5.94,4.36,11.81,6.47,17.74A98.74,98.74,0,0,0,391,463.83c1.29,4.19,3,8.22,4.44,12.37.76,2.25.86,2.23-1.66,2.24H375.29C373.36,477.67,373.92,475.43,372.78,474.2Z" transform="translate(-97.13 -306.21)"/><path class="cls-1" d="M312.68,444.75l1.07.47a4.59,4.59,0,0,1,1.06,2.95q-.09,13.88,0,27.73c0,1.67-.38,2.37-2.21,2.33-5.66-.1-11.33-.08-17,0-1.65,0-2.35-.36-2.34-2.19q.11-19.62,0-39.23c0-2.25.75-2.08,2.27-1.22,4.42,2.5,8.86,4.94,13.31,7.37C310.09,443.62,311.41,444.16,312.68,444.75Z" transform="translate(-97.13 -306.21)"/><path class="cls-1" d="M284.29,437.19c4.31,3.38,6.69,7.76,6.54,13.28-.13,5.12.57,10.27-.48,15.36a11.81,11.81,0,0,1-1.56,3.88c-2.51,2.46-4.56,5.36-8,6.87a22.88,22.88,0,0,1-10.18,1.6c-1.78-.05-1.35-1.37-1.35-2.36q0-13.71,0-27.43c0-4,.07-8,0-12-.05-1.77.61-2.13,2.29-2.28A21.39,21.39,0,0,1,284.29,437.19Z" transform="translate(-97.13 -306.21)"/><path class="cls-1" d="M244.74,463.7c0-3.48.2-7,0-10.45a22.18,22.18,0,0,1,2.65-12l3.9-4.06,6-3c2.33,0,4.66,0,7-.07,1.32-.05,1.95.33,1.95,1.81q-.06,20.07,0,40.15c0,1.27-.36,1.95-1.81,2.08C254.34,479.15,246.66,473.52,244.74,463.7Z" transform="translate(-97.13 -306.21)"/><path class="cls-1" d="M134.81,440.21c-1.84,2-2,4.72-3,7.08-1.6,3.86-2.87,7.85-4.31,11.77-.1.27-.47.44-.72.65-2,1.66-2.15,4.18-3,6.37-1.22,3.19-2.22,6.46-3.41,9.66-.45,1.22-1.52,1.5-2.83,1.49-5.82-.07-11.65-.1-17.47,0-1.92,0-2.36-.64-2.35-2.45,0-12.89,0-25.78,0-38.67-.38-1.86.37-2.43,2.26-2.42q17.17.12,34.36,0c2.19,0,3,.49,1.93,2.67a27.41,27.41,0,0,0-1.09,3.28Z" transform="translate(-97.13 -306.21)"/><path class="cls-1" d="M214.67,457.24c6.16,0,12.32.06,18.47,0,1.91,0,2.6.55,2.65,2.55.27,10.91-7.65,18.77-18,18.41-4.12-.15-8.22.29-12.36-.85-5.65-1.54-11.35-7.88-11.63-13.79-.29-6.28-.29-6.28,5.91-6.29Z" transform="translate(-97.13 -306.21)"/><path class="cls-1" d="M200.74,445.75c-.23,3,.3,6-.93,8.91" transform="translate(-97.13 -306.21)"/><path class="cls-1" d="M124.27,470.21" transform="translate(-97.13 -306.21)"/><path class="cls-1" d="M204.71,438.15l0,0c2.09-1.33,4-3,6.53-3.49,6.72-1.52,13.52-1.75,20.11.26,6,1.83,10.33,8.41,10.43,14.73,0,1.66-.05,3.32-.08,5-.41.39-.93.29-1.42.29H201.23a2,2,0,0,1-1.43-.27h0a35.25,35.25,0,0,1,.51-8.88A17.45,17.45,0,0,1,204.71,438.15Z" transform="translate(-97.13 -306.21)"/><path class="cls-1" d="M278.65,317.76c1,1.5,4-.23,3.54,2.94l-1.83-.06" transform="translate(-97.13 -306.21)"/><path class="cls-1" d="M361.78,451.7l8.44,22.95c.15.39.33.77.46,1.16.59,1.66.41,2.45-1.77,2.42-8.32-.13-16.64-.07-25,0-1.5,0-2.37,0-1.54-2,.57-1.4,1.59-2.76,1.4-4.43,1.24-3.56,2.52-7.11,3.93-10.61.16-.64.32-1.29.49-1.93a4,4,0,0,0,1-3h0a64.39,64.39,0,0,0,3.24-8.44,3.71,3.71,0,0,1,.8-1.49c.82-2,1.66-4.1,2.46-6.16.2-.54.23-1.24,1-1.16.56.06.69.66.86,1.12Q359.72,445.89,361.78,451.7Z" transform="translate(-97.13 -306.21)"/><path class="cls-1" d="M251.78,306.72c-1.34-.15-2.77.47-4-.44C249.09,306.43,250.52,305.82,251.78,306.72Z" transform="translate(-97.13 -306.21)"/><path class="cls-1" d="M331.75,438.18l3-1.91,3.45-1.6c.9.8.53,1.87.53,2.82,0,11.31.05,22.63,0,33.94,0,1.8.62,3.55.09,5.41-.3,1-.7,1.35-1.67,1.34-5.9,0-11.81,0-17.72,0-1.35,0-1.69-.58-1.69-1.81,0-9.48.05-19,0-28.45,0-1.74,1.2-2.22,2.32-2.86,3.4-1.9,6.82-3.76,10.23-5.64C330.87,439.12,331.53,438.91,331.75,438.18Z" transform="translate(-97.13 -306.21)"/><path class="cls-1" d="M299.25,369.24l-1-.51c0-.17,0-.35,0-.52.8-.85.34-2.23,1.3-3C300.14,366.6,299,367.86,299.25,369.24Z" transform="translate(-97.13 -306.21)"/><path class="cls-1" d="M298.27,368.73c-.16,1,.4,2.12-.51,3C297.91,370.73,297.43,369.62,298.27,368.73Z" transform="translate(-97.13 -306.21)"/><path class="cls-1" d="M196.73,381.85a2.28,2.28,0,0,1-1-1.59c-.14-.13-.17-.26-.11-.37s.11-.17.16-.17A1.79,1.79,0,0,1,196.73,381.85Z" transform="translate(-97.13 -306.21)"/><path class="cls-1" d="M194.26,375.75c.19-1-.37-2.14.51-3v3c-.16.22-.34.22-.51,0Z" transform="translate(-97.13 -306.21)"/><path class="cls-1" d="M194.26,375.74h.51l0,2.53C194,377.53,194.36,376.59,194.26,375.74Z" transform="translate(-97.13 -306.21)"/><path class="cls-1" d="M195.81,379.72c0,.18,0,.36-.05.54a3.37,3.37,0,0,1-1-2A1.5,1.5,0,0,1,195.81,379.72Z" transform="translate(-97.13 -306.21)"/><path class="cls-1" d="M162.32,446.63" transform="translate(-97.13 -306.21)"/><path class="cls-1" d="M163.21,448.7" transform="translate(-97.13 -306.21)"/><path class="cls-1" d="M161.21,443.21" transform="translate(-97.13 -306.21)"/><path class="cls-1" d="M160.34,441.17" transform="translate(-97.13 -306.21)"/><path class="cls-1" d="M159.26,436.23l-.48-1c.17-1.23,1.13-1,1.92-1,5.73,0,11.45,0,17.18,0a1.94,1.94,0,0,1,2.17,1.49c2.87,7.81,5.81,15.6,8.7,23.4,1.38,3.7,2.7,7.42,4,11.13,1,2.35,1.41,4.93,2.93,7.05-.26,1.45-1.41.9-2.2.9-5.4.05-10.79-.07-16.19.08a3.09,3.09,0,0,1-3.45-2.38c-3-8.39-6.08-16.76-9.12-25.13" transform="translate(-97.13 -306.21)"/><polygon class="cls-1" points="56.33 138.61 44.31 171.97 74.91 171.97 59.62 131.19 56.33 138.61"/><polygon class="cls-1" points="26.84 171.97 42.79 171.97 34.6 149.26 26.84 171.97"/><polygon class="cls-1" points="0.78 127.49 40.4 127.49 23.39 172.27 0 171.97 0.78 127.49"/><polygon class="cls-1" points="60.94 127.95 77.65 172.04 99.51 171.97 82.39 127.97 60.94 127.95"/></svg>